<svg xmlns="http://www.w3.org/2000/svg" id="svg0.45604473195276674" viewBox="0 0 1024 1024"><path d="M0 0 C337.92 0 675.84 0 1024 0 C1024 337.92 1024 675.84 1024 1024 C686.08 1024 348.16 1024 0 1024 C0 686.08 0 348.16 0 0 Z " transform="translate(0,0)" style="fill: #8792A3;"/><path d="M0 0 C1.65 0.33 3.3 0.66 5 1 C5 1.99 5 2.98 5 4 C5.66 4.33 6.32 4.66 7 5 C7 4.34 7 3.68 7 3 C8.98 2.34 10.96 1.68 13 1 C13.33 2.32 13.66 3.64 14 5 C12.68 5.66 11.36 6.32 10 7 C10.66 8.65 11.32 10.3 12 12 C10.515 12.495 10.515 12.495 9 13 C8.79375 12.195625 8.5875 11.39125 8.375 10.5625 C7.92125 9.716875 7.4675 8.87125 7 8 C2.91940263 6.79343376 2.91940263 6.79343376 -1 8 C-0.01 8.33 0.98 8.66 2 9 C1.67 9.99 1.34 10.98 1 12 C0.67 11.34 0.34 10.68 0 10 C-1.32 10 -2.64 10 -4 10 C-4 10.66 -4 11.32 -4 12 C-4.66 12 -5.32 12 -6 12 C-6.33 11.01 -6.66 10.02 -7 9 C-8.65 8.67 -10.3 8.34 -12 8 C-12 7.34 -12 6.68 -12 6 C-13.093125 6.185625 -14.18625 6.37125 -15.3125 6.5625 C-19 7 -19 7 -22 6 C-21.773125 6.928125 -21.54625 7.85625 -21.3125 8.8125 C-21 12 -21 12 -22.1875 13.75 C-24 15 -24 15 -26.125 15.9375 C-28.17159503 16.83574788 -28.17159503 16.83574788 -28.75 18.9375 C-29.06016568 21.15010085 -29.06016568 21.15010085 -29 24 C-29.763125 24.04125 -30.52625 24.0825 -31.3125 24.125 C-34.32405113 24.77823609 -34.32405113 24.77823609 -35.8125 28.0625 C-36.204375 29.031875 -36.59625 30.00125 -37 31 C-36.34 31.33 -35.68 31.66 -35 32 C-35.99 32.66 -36.98 33.32 -38 34 C-38.66 29.71 -39.32 25.42 -40 21 C-40.99 20.67 -41.98 20.34 -43 20 C-42.401875 19.46375 -41.80375 18.9275 -41.1875 18.375 C-38.48134918 15.43689339 -36 12.13026578 -36 8 C-35.34 8 -34.68 8 -34 8 C-34 8.66 -34 9.32 -34 10 C-33.01 10 -32.02 10 -31 10 C-31 8.35 -31 6.7 -31 5 C-40.77419822 5.41893394 -40.77419822 5.41893394 -50 8 C-52.125 7.5625 -52.125 7.5625 -54 7 C-54 7.66 -54 8.32 -54 9 C-53.34 9 -52.68 9 -52 9 C-51.58082532 10.89080952 -51.19055854 12.78804224 -50.8125 14.6875 C-50.59207031 15.74324219 -50.37164062 16.79898438 -50.14453125 17.88671875 C-49.9717802 21.60786977 -50.85154627 23.02961966 -53 26 C-53.33 26.66 -53.66 27.32 -54 28 C-53.01 28.33 -52.02 28.66 -51 29 C-50.66666667 30.33333333 -50.33333333 31.66666667 -50 33 C-49.01 33.33 -48.02 33.66 -47 34 C-47 34.66 -47 35.32 -47 36 C-192.2 36 -337.4 36 -487 36 C-487 27.75 -487 19.5 -487 11 C-474.76019185 9.88729017 -474.76019185 9.88729017 -470.125 10 C-467.38538943 10.06542354 -465.08644926 10.01871984 -462.40234375 9.4375 C-458.96789187 8.81203884 -456.31399939 10.03592745 -453 11 C-450.60005206 10.67568271 -449.15634494 10.07817247 -447 9 C-442.24526725 8.68239506 -437.63320317 8.84169921 -433 10 C-429.50932651 10.85138378 -427.42550774 11.03803265 -424 10 C-418.41772152 8.86075949 -418.41772152 8.86075949 -415 10 C-413.96875 9.835 -412.9375 9.67 -411.875 9.5 C-408.7529977 9.09716099 -406.8518236 9.0462132 -403.84594727 9.46264648 C-399.07392887 10.04146175 -394.39208019 10.1283839 -389.58984375 10.09765625 C-388.31047691 10.09553383 -388.31047691 10.09553383 -387.00526428 10.09336853 C-384.31597184 10.08782939 -381.62676672 10.0752888 -378.9375 10.0625 C-377.09961059 10.05747712 -375.26171985 10.0529156 -373.42382812 10.04882812 C-368.94918578 10.03788 -364.47460762 10.02065839 -360 10 C-359.67 9.01 -359.34 8.02 -359 7 C-359 7.99 -359 8.98 -359 10 C-356.56183415 10.0809723 -354.12635616 10.14046972 -351.6875 10.1875 C-350.99720703 10.21263672 -350.30691406 10.23777344 -349.59570312 10.26367188 C-345.51768766 10.35746667 -345.51768766 10.35746667 -342.01953125 8.48828125 C-341.68308594 7.99714844 -341.34664062 7.50601563 -341 7 C-341 7.66 -341 8.32 -341 9 C-338.525 8.01 -338.525 8.01 -336 7 C-335.01 7.99 -335.01 7.99 -334 9 C-331.41935871 9.14497985 -328.95056116 9.18677545 -326.375 9.125 C-325.66859375 9.11597656 -324.9621875 9.10695313 -324.234375 9.09765625 C-322.48943902 9.07407603 -320.74467705 9.03820461 -319 9 C-318.67 8.34 -318.34 7.68 -318 7 C-318 7.66 -318 8.32 -318 9 C-317.35675781 8.855625 -316.71351563 8.71125 -316.05078125 8.5625 C-308.01703166 6.91220051 -299.51516823 5.84893636 -291.3984375 7.54296875 C-288.87187646 8.02441442 -287.02878683 7.89178387 -284.5 7.5 C-281.02610196 7.03988105 -278.43213617 7.23730307 -275 8 C-273.32706064 7.69972883 -271.66014616 7.36442233 -270 7 C-268.00039988 6.960008 -265.99952758 6.95653201 -264 7 C-262.1119428 7 -260.22383032 6.98975729 -258.3359375 6.96484375 C-256.87027344 6.95130859 -256.87027344 6.95130859 -255.375 6.9375 C-254.39273438 6.92589844 -253.41046875 6.91429687 -252.3984375 6.90234375 C-250 7 -250 7 -249 8 C-243.67326964 8.33856828 -243.67326964 8.33856828 -239 6 C-239 6.66 -239 7.32 -239 8 C-238.195625 7.835 -237.39125 7.67 -236.5625 7.5 C-225.97260274 6.01369863 -225.97260274 6.01369863 -222 8 C-219.92185167 7.55711593 -217.84506002 7.10646882 -215.77734375 6.6171875 C-212.6136829 5.91415176 -209.44725748 5.34235198 -206.25 4.8125 C-205.18265625 4.63332031 -204.1153125 4.45414063 -203.015625 4.26953125 C-200.06479746 4.00579148 -197.85026988 4.25576286 -195 5 C-194.34 4.01 -193.68 3.02 -193 2 C-192.67 3.32 -192.34 4.64 -192 6 C-190.88625 5.814375 -189.7725 5.62875 -188.625 5.4375 C-185 5 -185 5 -183 6 C-183 5.34 -183 4.68 -183 4 C-182.01 4 -181.02 4 -180 4 C-180 4.66 -180 5.32 -180 6 C-178.62773731 6.22566098 -177.25189728 6.42959874 -175.875 6.625 C-175.10929687 6.74101563 -174.34359375 6.85703125 -173.5546875 6.9765625 C-170.89358716 7.13998162 -170.89358716 7.13998162 -168.09765625 6.02734375 C-164.69015927 4.89724072 -162.13887 4.83218875 -158.5625 4.9375 C-150.98490475 5.05880622 -143.55026748 4.59217784 -136 4 C-136 4.66 -136 5.32 -136 6 C-134.08364783 6.05423638 -132.16685075 6.09289963 -130.25 6.125 C-129.18265625 6.14820313 -128.1153125 6.17140625 -127.015625 6.1953125 C-123.98555798 5.99906464 -122.62587384 5.36630834 -120 4 C-117.5625 3.8046875 -117.5625 3.8046875 -115 3.875 C-114.154375 3.89304687 -113.30875 3.91109375 -112.4375 3.9296875 C-111.633125 3.95289063 -110.82875 3.97609375 -110 4 C-107.25836031 4 -104.5186887 3.98927862 -101.77734375 3.96484375 C-100.16406335 3.95557963 -98.55078206 3.9464698 -96.9375 3.9375 C-96.12216797 3.92912109 -95.30683594 3.92074219 -94.46679688 3.91210938 C-93.29020508 3.90727539 -93.29020508 3.90727539 -92.08984375 3.90234375 C-91.02044556 3.89448853 -91.02044556 3.89448853 -89.92944336 3.88647461 C-88 4 -88 4 -85 5 C-82.8350098 5.09485782 -80.66706177 5.12988077 -78.5 5.125 C-77.3553125 5.12757813 -76.210625 5.13015625 -75.03125 5.1328125 C-71.95320141 5.13684408 -71.95320141 5.13684408 -69 4 C-68.38125 4.165 -67.7625 4.33 -67.125 4.5 C-64.43451412 5.1330555 -62.67982786 4.63805425 -60 4 C-54.375 2.875 -54.375 2.875 -51 4 C-49.10206574 3.79120635 -47.20444334 3.57467096 -45.31396484 3.30664062 C-41.16093857 2.75629235 -36.99231626 2.50558906 -32.8125 2.25 C-31.93658203 2.18167969 -31.06066406 2.11335937 -30.15820312 2.04296875 C-25.19720617 1.74959668 -22.0624553 1.73657835 -18 5 C-18 4.34 -18 3.68 -18 3 C-12.29014022 2.25983299 -6.75813575 1.89530662 -1 2 C-0.67 1.34 -0.34 0.68 0 0 Z " transform="translate(487,988)" style="fill: #2B2B1F;"/><path d="M0 0 C0.66 0.33 1.32 0.66 2 1 C2 1.99 2 2.98 2 4 C3.11375 3.814375 4.2275 3.62875 5.375 3.4375 C9 3 9 3 11 4 C11 3.34 11 2.68 11 2 C11.99 2 12.98 2 14 2 C14 2.66 14 3.32 14 4 C15.37226269 4.22566098 16.74810272 4.42959874 18.125 4.625 C18.89070313 4.74101563 19.65640625 4.85703125 20.4453125 4.9765625 C23.10641284 5.13998162 23.10641284 5.13998162 25.90234375 4.02734375 C29.30984073 2.89724072 31.86113 2.83218875 35.4375 2.9375 C43.01509525 3.05880622 50.44973252 2.59217784 58 2 C58 2.66 58 3.32 58 4 C60.31 4 62.62 4 65 4 C62.02139779 5.70974223 59.89635139 6.24859482 56.47265625 6.23046875 C55.60342529 6.22917969 54.73419434 6.22789062 53.83862305 6.2265625 C52.92250244 6.21367188 52.00638184 6.20078125 51.0625 6.1875 C50.12768799 6.18105469 49.19287598 6.17460938 48.22973633 6.16796875 C41.11930036 6.08948847 34.07531039 5.73509718 27 5 C26.67 5.99 26.34 6.98 26 8 C19.4 7.34 12.8 6.68 6 6 C5.67 6.66 5.34 7.32 5 8 C5 7.01 5 6.02 5 5 C4.175 5.185625 3.35 5.37125 2.5 5.5625 C-1 6 -1 6 -4.6875 5.375 C-9.37073345 4.63220475 -13.23516431 5.97013666 -17.6796875 7.40625 C-20 8 -20 8 -22 7 C-23.485 7.495 -23.485 7.495 -25 8 C-26.51594505 8.07709876 -28.03515304 8.09726116 -29.55297852 8.08178711 C-30.47567032 8.0752562 -31.39836212 8.06872528 -32.34901428 8.06199646 C-33.84881081 8.04484337 -33.84881081 8.04484337 -35.37890625 8.02734375 C-37.52018053 8.01467251 -39.66145667 8.00231347 -41.80273438 7.99023438 C-45.15915841 7.96567458 -48.51548326 7.9379752 -51.87182617 7.90405273 C-74.25054369 6.83910185 -74.25054369 6.83910185 -96 11 C-96.33 11.99 -96.66 12.98 -97 14 C-99.31 14.33 -101.62 14.66 -104 15 C-103.34 14.01 -102.68 13.02 -102 12 C-101.34 12 -100.68 12 -100 12 C-100 11.34 -100 10.68 -100 10 C-102.97 10.66 -105.94 11.32 -109 12 C-108.01 12.33 -107.02 12.66 -106 13 C-106.33 13.99 -106.66 14.98 -107 16 C-111.95 16.66 -116.9 17.32 -122 18 C-121.67 17.01 -121.34 16.02 -121 15 C-117.71023192 13.90341064 -116.28696233 14.20046862 -113 15 C-113 13.35 -113 11.7 -113 10 C-113.9075 10.185625 -114.815 10.37125 -115.75 10.5625 C-118.76942789 10.96896145 -120.17174111 10.78020935 -123 10 C-123.99 10.33 -124.98 10.66 -126 11 C-128.79784711 11 -130.9790678 10.62804225 -133.6875 10 C-134.49574219 9.814375 -135.30398437 9.62875 -136.13671875 9.4375 C-136.75160156 9.293125 -137.36648437 9.14875 -138 9 C-138 10.98 -138 12.96 -138 15 C-138.99 15.33 -139.98 15.66 -141 16 C-141.474375 16.495 -141.94875 16.99 -142.4375 17.5 C-144.31305501 19.30053281 -145.46288385 19.55227362 -148 20 C-148.9075 20.185625 -149.815 20.37125 -150.75 20.5625 C-151.86375 20.7790625 -151.86375 20.7790625 -153 21 C-153.66 22.98 -154.32 24.96 -155 27 C-154.01 27.33 -153.02 27.66 -152 28 C-152 28.99 -152 29.98 -152 31 C-152.78375 30.979375 -153.5675 30.95875 -154.375 30.9375 C-156.98114961 30.81315937 -156.98114961 30.81315937 -159 32 C-159 29.69 -159 27.38 -159 25 C-159.99 25 -160.98 25 -162 25 C-162.33 27.31 -162.66 29.62 -163 32 C-164.65 32.33 -166.3 32.66 -168 33 C-168 32.34 -168 31.68 -168 31 C-167.01 31 -166.02 31 -165 31 C-165 30.34 -165 29.68 -165 29 C-166.32 29 -167.64 29 -169 29 C-169 29.99 -169 30.98 -169 32 C-172.75 33.125 -172.75 33.125 -175 32 C-175 32.66 -175 33.32 -175 34 C-213.94 34 -252.88 34 -293 34 C-293 25.75 -293 17.5 -293 9 C-280.76019185 7.88729017 -280.76019185 7.88729017 -276.125 8 C-273.38538943 8.06542354 -271.08644926 8.01871984 -268.40234375 7.4375 C-264.96789187 6.81203884 -262.31399939 8.03592745 -259 9 C-256.60005206 8.67568271 -255.15634494 8.07817247 -253 7 C-248.24526725 6.68239506 -243.63320317 6.84169921 -239 8 C-235.50932651 8.85138378 -233.42550774 9.03803265 -230 8 C-224.41772152 6.86075949 -224.41772152 6.86075949 -221 8 C-219.453125 7.7525 -219.453125 7.7525 -217.875 7.5 C-214.7529977 7.09716099 -212.8518236 7.0462132 -209.84594727 7.46264648 C-205.07392887 8.04146175 -200.39208019 8.1283839 -195.58984375 8.09765625 C-194.31047691 8.09553383 -194.31047691 8.09553383 -193.00526428 8.09336853 C-190.31597184 8.08782939 -187.62676672 8.0752888 -184.9375 8.0625 C-183.09961059 8.05747712 -181.26171985 8.0529156 -179.42382812 8.04882812 C-174.94918578 8.03788 -170.47460762 8.02065839 -166 8 C-165.67 7.01 -165.34 6.02 -165 5 C-165 5.99 -165 6.98 -165 8 C-162.56183415 8.0809723 -160.12635616 8.14046972 -157.6875 8.1875 C-156.99720703 8.21263672 -156.30691406 8.23777344 -155.59570312 8.26367188 C-151.51768766 8.35746667 -151.51768766 8.35746667 -148.01953125 6.48828125 C-147.68308594 5.99714844 -147.34664062 5.50601563 -147 5 C-147 5.66 -147 6.32 -147 7 C-144.525 6.01 -144.525 6.01 -142 5 C-141.01 5.99 -141.01 5.99 -140 7 C-137.41935871 7.14497985 -134.95056116 7.18677545 -132.375 7.125 C-131.66859375 7.11597656 -130.9621875 7.10695313 -130.234375 7.09765625 C-128.48943902 7.07407603 -126.74467705 7.03820461 -125 7 C-124.67 6.34 -124.34 5.68 -124 5 C-124 5.66 -124 6.32 -124 7 C-123.35675781 6.855625 -122.71351563 6.71125 -122.05078125 6.5625 C-114.01703166 4.91220051 -105.51516823 3.84893636 -97.3984375 5.54296875 C-94.87187646 6.02441442 -93.02878683 5.89178387 -90.5 5.5 C-87.02610196 5.03988105 -84.43213617 5.23730307 -81 6 C-79.32706064 5.69972883 -77.66014616 5.36442233 -76 5 C-74.00039988 4.960008 -71.99952758 4.95653201 -70 5 C-68.1119428 5 -66.22383032 4.98975729 -64.3359375 4.96484375 C-62.87027344 4.95130859 -62.87027344 4.95130859 -61.375 4.9375 C-60.39273438 4.92589844 -59.41046875 4.91429687 -58.3984375 4.90234375 C-56 5 -56 5 -55 6 C-49.67326964 6.33856828 -49.67326964 6.33856828 -45 4 C-45 4.66 -45 5.32 -45 6 C-44.195625 5.835 -43.39125 5.67 -42.5625 5.5 C-31.97260274 4.01369863 -31.97260274 4.01369863 -28 6 C-25.92185167 5.55711593 -23.84506002 5.10646882 -21.77734375 4.6171875 C-18.6136829 3.91415176 -15.44725748 3.34235198 -12.25 2.8125 C-11.18265625 2.63332031 -10.1153125 2.45414063 -9.015625 2.26953125 C-6.06479746 2.00579148 -3.85026988 2.25576286 -1 3 C-0.67 2.01 -0.34 1.02 0 0 Z " transform="translate(293,990)" style="fill: #343225;"/><path d="M0 0 C0 0.66 0 1.32 0 2 C0.7734375 1.7834375 1.546875 1.566875 2.34375 1.34375 C8.4169341 -0.27977446 13.71610769 -1.36253225 20 -1 C20 -0.34 20 0.32 20 1 C21.32 0.67 22.64 0.34 24 0 C24.9991932 3.10860106 24.83036989 4.88611292 24 8 C24.495 8.99 24.495 8.99 25 10 C26.94074861 9.72382467 26.94074861 9.72382467 29 9 C29.66 8.01 30.32 7.02 31 6 C31.66 6 32.32 6 33 6 C33 6.99 33 7.98 33 9 C33.66 9 34.32 9 35 9 C35.33 8.01 35.66 7.02 36 6 C36.99 6.33 37.98 6.66 39 7 C39.33333333 8.33333333 39.66666667 9.66666667 40 11 C40.99 11.33 41.98 11.66 43 12 C43 12.66 43 13.32 43 14 C42.21625 14.0825 41.4325 14.165 40.625 14.25 C37.90548487 14.72624325 37.90548487 14.72624325 36.75 16.8125 C36.05484169 18.84004506 35.51985202 20.92059193 35 23 C12.89 23 -9.22 23 -32 23 C-32 16.07 -32 9.14 -32 2 C-26.3671376 -0.25314496 -26.3671376 -0.25314496 -22.63671875 -0.44921875 C-21.83169922 -0.49240234 -21.02667969 -0.53558594 -20.19726562 -0.58007812 C-18.95493164 -0.63325195 -18.95493164 -0.63325195 -17.6875 -0.6875 C-16.87087891 -0.73455078 -16.05425781 -0.78160156 -15.21289062 -0.83007812 C-10.00010458 -1.0834486 -5.15905862 -0.78959125 0 0 Z M36 11 C37 13 37 13 37 13 Z " transform="translate(32,1001)" style="fill: #302F21;"/><path d="M0 0 C1.65 0.33 3.3 0.66 5 1 C5 1.99 5 2.98 5 4 C5.99 4.495 5.99 4.495 7 5 C7 4.34 7 3.68 7 3 C8.98 2.34 10.96 1.68 13 1 C13.33 2.32 13.66 3.64 14 5 C12.68 5.66 11.36 6.32 10 7 C10.99 9.475 10.99 9.475 12 12 C11.01 12.33 10.02 12.66 9 13 C8.79375 12.195625 8.5875 11.39125 8.375 10.5625 C7.92125 9.716875 7.4675 8.87125 7 8 C2.91940263 6.79343376 2.91940263 6.79343376 -1 8 C-0.01 8.33 0.98 8.66 2 9 C1.67 9.99 1.34 10.98 1 12 C0.505 11.01 0.505 11.01 0 10 C-1.32 10 -2.64 10 -4 10 C-4 10.66 -4 11.32 -4 12 C-4.66 12 -5.32 12 -6 12 C-6.495 10.515 -6.495 10.515 -7 9 C-8.65 8.67 -10.3 8.34 -12 8 C-12 7.34 -12 6.68 -12 6 C-13.093125 6.185625 -14.18625 6.37125 -15.3125 6.5625 C-19 7 -19 7 -22 6 C-21.773125 6.928125 -21.54625 7.85625 -21.3125 8.8125 C-21 12 -21 12 -22.1875 13.75 C-24 15 -24 15 -26.125 15.9375 C-28.17159503 16.83574788 -28.17159503 16.83574788 -28.75 18.9375 C-29.06016568 21.15010085 -29.06016568 21.15010085 -29 24 C-29.763125 24.04125 -30.52625 24.0825 -31.3125 24.125 C-34.32405113 24.77823609 -34.32405113 24.77823609 -35.8125 28.0625 C-36.204375 29.031875 -36.59625 30.00125 -37 31 C-36.34 31.33 -35.68 31.66 -35 32 C-35.99 32.66 -36.98 33.32 -38 34 C-38.66 29.71 -39.32 25.42 -40 21 C-41.485 20.505 -41.485 20.505 -43 20 C-42.401875 19.46375 -41.80375 18.9275 -41.1875 18.375 C-38.48134918 15.43689339 -36 12.13026578 -36 8 C-35.34 8 -34.68 8 -34 8 C-34 8.66 -34 9.32 -34 10 C-33.01 10 -32.02 10 -31 10 C-31 8.35 -31 6.7 -31 5 C-40.77419822 5.41893394 -40.77419822 5.41893394 -50 8 C-52.125 7.5625 -52.125 7.5625 -54 7 C-54 7.66 -54 8.32 -54 9 C-53.34 9 -52.68 9 -52 9 C-52 9.66 -52 10.32 -52 11 C-52.99 10.67 -53.98 10.34 -55 10 C-55 9.34 -55 8.68 -55 8 C-55.66 8 -56.32 8 -57 8 C-56.505 9.98 -56.505 9.98 -56 12 C-57.32 11.67 -58.64 11.34 -60 11 C-60.33 11.66 -60.66 12.32 -61 13 C-61.99 12.34 -62.98 11.68 -64 11 C-63.67 10.01 -63.34 9.02 -63 8 C-64.24910156 8.01160156 -65.49820313 8.02320313 -66.78515625 8.03515625 C-77.73176768 8.1010165 -88.60683643 7.89735806 -99.53344727 7.17993164 C-100.45182373 7.12828857 -101.3702002 7.07664551 -102.31640625 7.0234375 C-103.12537354 6.97106934 -103.93434082 6.91870117 -104.76782227 6.86474609 C-107.30482875 7.01847043 -108.76206691 7.85418285 -111 9 C-113.00800456 8.71887936 -115.01014051 8.38932033 -117 8 C-117.99 8.495 -117.99 8.495 -119 9 C-120.66619446 9.0396713 -122.33391013 9.04384447 -124 9 C-123.67 7.68 -123.34 6.36 -123 5 C-118.03202017 4.29647344 -113.9350744 3.9033168 -109 5 C-107.94425781 4.77183594 -107.94425781 4.77183594 -106.8671875 4.5390625 C-103.19537892 3.84872247 -99.59534951 3.85467022 -95.875 3.875 C-95.15957031 3.87113281 -94.44414062 3.86726562 -93.70703125 3.86328125 C-90.53865016 3.86920346 -88.02689855 3.99103382 -85 5 C-82.8350098 5.09485782 -80.66706177 5.12988077 -78.5 5.125 C-77.3553125 5.12757813 -76.210625 5.13015625 -75.03125 5.1328125 C-71.95320141 5.13684408 -71.95320141 5.13684408 -69 4 C-68.071875 4.2475 -68.071875 4.2475 -67.125 4.5 C-64.43451412 5.1330555 -62.67982786 4.63805425 -60 4 C-54.375 2.875 -54.375 2.875 -51 4 C-49.10206574 3.79120635 -47.20444334 3.57467096 -45.31396484 3.30664062 C-41.16093857 2.75629235 -36.99231626 2.50558906 -32.8125 2.25 C-31.93658203 2.18167969 -31.06066406 2.11335937 -30.15820312 2.04296875 C-25.19720617 1.74959668 -22.0624553 1.73657835 -18 5 C-18 4.34 -18 3.68 -18 3 C-12.29014022 2.25983299 -6.75813575 1.89530662 -1 2 C-0.67 1.34 -0.34 0.68 0 0 Z " transform="translate(487,988)" style="fill: #2A2B1E;"/><path d="M0 0 C0.99 0.495 0.99 0.495 2 1 C2 1.99 2 2.98 2 4 C3.11375 3.814375 4.2275 3.62875 5.375 3.4375 C9 3 9 3 11 4 C11 3.34 11 2.68 11 2 C11.99 2 12.98 2 14 2 C14 2.66 14 3.32 14 4 C15.37226269 4.22566098 16.74810272 4.42959874 18.125 4.625 C18.89070312 4.74101563 19.65640625 4.85703125 20.4453125 4.9765625 C23.10641284 5.13998162 23.10641284 5.13998162 25.90234375 4.02734375 C29.30984073 2.89724072 31.86113 2.83218875 35.4375 2.9375 C43.01509525 3.05880622 50.44973252 2.59217784 58 2 C58 2.66 58 3.32 58 4 C60.31 4 62.62 4 65 4 C62.02139779 5.70974223 59.89635139 6.24859482 56.47265625 6.23046875 C55.60342529 6.22917969 54.73419434 6.22789062 53.83862305 6.2265625 C52.92250244 6.21367188 52.00638184 6.20078125 51.0625 6.1875 C50.12768799 6.18105469 49.19287598 6.17460938 48.22973633 6.16796875 C41.11930036 6.08948847 34.07531039 5.73509718 27 5 C26.67 5.99 26.34 6.98 26 8 C16.1 7.01 16.1 7.01 6 6 C5.67 6.66 5.34 7.32 5 8 C5 7.01 5 6.02 5 5 C4.175 5.185625 3.35 5.37125 2.5 5.5625 C-1 6 -1 6 -4.6875 5.375 C-9.37073345 4.63220475 -13.23516431 5.97013666 -17.6796875 7.40625 C-20 8 -20 8 -22 7 C-22.99 7.33 -23.98 7.66 -25 8 C-26.51594505 8.07709876 -28.03515304 8.09726116 -29.55297852 8.08178711 C-30.47567032 8.0752562 -31.39836212 8.06872528 -32.34901428 8.06199646 C-33.84881081 8.04484337 -33.84881081 8.04484337 -35.37890625 8.02734375 C-37.52018053 8.01467251 -39.66145667 8.00231347 -41.80273438 7.99023438 C-45.15915841 7.96567458 -48.51548326 7.9379752 -51.87182617 7.90405273 C-74.25054369 6.83910185 -74.25054369 6.83910185 -96 11 C-96.33 11.99 -96.66 12.98 -97 14 C-99.31 14.33 -101.62 14.66 -104 15 C-103.34 14.01 -102.68 13.02 -102 12 C-101.34 12 -100.68 12 -100 12 C-100 11.34 -100 10.68 -100 10 C-102.97 10.66 -105.94 11.32 -109 12 C-108.01 12.33 -107.02 12.66 -106 13 C-106.33 13.99 -106.66 14.98 -107 16 C-111.95 16.66 -116.9 17.32 -122 18 C-121.67 17.01 -121.34 16.02 -121 15 C-117.71023192 13.90341064 -116.28696233 14.20046862 -113 15 C-113 13.35 -113 11.7 -113 10 C-113.9075 10.185625 -114.815 10.37125 -115.75 10.5625 C-118.76942789 10.96896145 -120.17174111 10.78020935 -123 10 C-123.99 10.33 -124.98 10.66 -126 11 C-129 11 -129 11 -132.1875 10.5 C-137.26196244 9.83449673 -142.0752123 9.3584041 -147 11 C-149.6875 10.5625 -149.6875 10.5625 -152 10 C-150.35 8.35 -148.7 6.7 -147 5 C-147 5.66 -147 6.32 -147 7 C-145.35 6.34 -143.7 5.68 -142 5 C-141.34 5.66 -140.68 6.32 -140 7 C-137.41935871 7.14497985 -134.95056116 7.18677545 -132.375 7.125 C-131.66859375 7.11597656 -130.9621875 7.10695313 -130.234375 7.09765625 C-128.48943902 7.07407603 -126.74467705 7.03820461 -125 7 C-124.67 6.34 -124.34 5.68 -124 5 C-124 5.66 -124 6.32 -124 7 C-123.35675781 6.855625 -122.71351563 6.71125 -122.05078125 6.5625 C-114.01703166 4.91220051 -105.51516823 3.84893636 -97.3984375 5.54296875 C-94.87187646 6.02441442 -93.02878683 5.89178387 -90.5 5.5 C-87.02610196 5.03988105 -84.43213617 5.23730307 -81 6 C-79.32706064 5.69972883 -77.66014616 5.36442233 -76 5 C-74.00039988 4.960008 -71.99952758 4.95653201 -70 5 C-68.1119428 5 -66.22383032 4.98975729 -64.3359375 4.96484375 C-62.87027344 4.95130859 -62.87027344 4.95130859 -61.375 4.9375 C-60.39273438 4.92589844 -59.41046875 4.91429687 -58.3984375 4.90234375 C-56 5 -56 5 -55 6 C-49.67326964 6.33856828 -49.67326964 6.33856828 -45 4 C-45 4.66 -45 5.32 -45 6 C-44.195625 5.835 -43.39125 5.67 -42.5625 5.5 C-31.97260274 4.01369863 -31.97260274 4.01369863 -28 6 C-25.92185167 5.55711593 -23.84506002 5.10646882 -21.77734375 4.6171875 C-18.6136829 3.91415176 -15.44725748 3.34235198 -12.25 2.8125 C-11.18265625 2.63332031 -10.1153125 2.45414063 -9.015625 2.26953125 C-6.06479746 2.00579148 -3.85026988 2.25576286 -1 3 C-0.67 2.01 -0.34 1.02 0 0 Z " transform="translate(293,990)" style="fill: #454135;"/><path d="M0 0 C0.37125 0.495 0.7425 0.99 1.125 1.5 C-0.86067708 1.46744792 -2.84635417 1.43489583 -4.83203125 1.40234375 C-7.07805461 1.41736783 -7.07805461 1.41736783 -9.875 2.5 C-13.10505357 2.53018742 -16.3221146 2.43359133 -19.55078125 2.33984375 C-23.00964035 2.50648679 -25.63210353 3.34480512 -28.875 4.5 C-31.25 4.125 -31.25 4.125 -32.875 3.5 C-32.875 4.16 -32.875 4.82 -32.875 5.5 C-32.215 5.5 -31.555 5.5 -30.875 5.5 C-30.875 6.16 -30.875 6.82 -30.875 7.5 C-31.865 7.17 -32.855 6.84 -33.875 6.5 C-33.875 5.84 -33.875 5.18 -33.875 4.5 C-34.535 4.5 -35.195 4.5 -35.875 4.5 C-35.38 6.48 -35.38 6.48 -34.875 8.5 C-36.195 8.17 -37.515 7.84 -38.875 7.5 C-39.205 8.16 -39.535 8.82 -39.875 9.5 C-40.865 8.84 -41.855 8.18 -42.875 7.5 C-42.545 6.51 -42.215 5.52 -41.875 4.5 C-43.12410156 4.51160156 -44.37320313 4.52320313 -45.66015625 4.53515625 C-56.60676768 4.6010165 -67.48183643 4.39735806 -78.40844727 3.67993164 C-79.32682373 3.62828857 -80.2452002 3.57664551 -81.19140625 3.5234375 C-82.00037354 3.47106934 -82.80934082 3.41870117 -83.64282227 3.36474609 C-86.17982875 3.51847043 -87.63706691 4.35418285 -89.875 5.5 C-91.88300456 5.21887936 -93.88514051 4.88932033 -95.875 4.5 C-96.865 4.995 -96.865 4.995 -97.875 5.5 C-99.54119446 5.5396713 -101.20891013 5.54384447 -102.875 5.5 C-102.545 4.18 -102.215 2.86 -101.875 1.5 C-96.90702017 0.79647344 -92.8100744 0.4033168 -87.875 1.5 C-86.81925781 1.27183594 -86.81925781 1.27183594 -85.7421875 1.0390625 C-82.07037892 0.34872247 -78.47034951 0.35467022 -74.75 0.375 C-74.03457031 0.37113281 -73.31914062 0.36726562 -72.58203125 0.36328125 C-69.41365016 0.36920346 -66.90189855 0.49103382 -63.875 1.5 C-61.7100098 1.59485782 -59.54206177 1.62988077 -57.375 1.625 C-56.2303125 1.62757813 -55.085625 1.63015625 -53.90625 1.6328125 C-50.82820141 1.63684408 -50.82820141 1.63684408 -47.875 0.5 C-46.946875 0.7475 -46.946875 0.7475 -46 1 C-43.30951412 1.6330555 -41.55482786 1.13805425 -38.875 0.5 C-33.25 -0.625 -33.25 -0.625 -29.875 0.5 C-28.0665678 0.29527183 -26.25872318 0.08160331 -24.45703125 -0.17578125 C-3.50788656 -2.80630925 -3.50788656 -2.80630925 0 0 Z " transform="translate(465.875,991.5)" style="fill: #444235;"/><path d="M0 0 C2 0 2 0 4.0625 1.4375 C6.81082042 5.0723754 7.23353379 8.49038192 7 13 C5.625 15.9375 5.625 15.9375 4 18 C3.67 18.66 3.34 19.32 3 20 C3.99 20.33 4.98 20.66 6 21 C6.33333333 22.33333333 6.66666667 23.66666667 7 25 C7.99 25.33 8.98 25.66 10 26 C10 26.66 10 27.32 10 28 C3.4 28 -3.2 28 -10 28 C-9.34 26.02 -8.68 24.04 -8 22 C-6.68 22.33 -5.36 22.66 -4 23 C-3.67 21.68 -3.34 20.36 -3 19 C-4.32 18.67 -5.64 18.34 -7 18 C-7 17.01 -7 16.02 -7 15 C-6.34 15 -5.68 15 -5 15 C-5 14.01 -5 13.02 -5 12 C-4.34 11.34 -3.68 10.68 -3 10 C-3.33 9.01 -3.66 8.02 -4 7 C-4.66 7 -5.32 7 -6 7 C-6.33 7.99 -6.66 8.98 -7 10 C-7.66 10 -8.32 10 -9 10 C-8.34 8.02 -7.68 6.04 -7 4 C-1.25 2.875 -1.25 2.875 1 4 C0.67 2.68 0.34 1.36 0 0 Z " transform="translate(430,996)" style="fill: #26261A;"/><path d="M0 0 C2.76675184 -0.00221458 5.53312162 -0.02050726 8.29980469 -0.03930664 C10.06282417 -0.04223621 11.82584552 -0.04422392 13.58886719 -0.04516602 C14.4138269 -0.05235153 15.23878662 -0.05953705 16.08874512 -0.06694031 C19.99400386 -0.05123641 21.92119613 -0.03064464 25.24511719 2.18530273 C23.22688802 2.34806315 21.20865885 2.51082357 19.19042969 2.67358398 C16.84992503 3.05923309 16.84992503 3.05923309 15.24511719 6.18530273 C15.90511719 6.18530273 16.56511719 6.18530273 17.24511719 6.18530273 C17.24511719 7.50530273 17.24511719 8.82530273 17.24511719 10.18530273 C16.25511719 9.85530273 15.26511719 9.52530273 14.24511719 9.18530273 C14.24511719 8.52530273 14.24511719 7.86530273 14.24511719 7.18530273 C13.25511719 7.18530273 12.26511719 7.18530273 11.24511719 7.18530273 C10.58511719 8.50530273 9.92511719 9.82530273 9.24511719 11.18530273 C8.25511719 11.18530273 7.26511719 11.18530273 6.24511719 11.18530273 C6.57511719 9.86530273 6.90511719 8.54530273 7.24511719 7.18530273 C3.28511719 6.85530273 -0.67488281 6.52530273 -4.75488281 6.18530273 C-4.75488281 5.52530273 -4.75488281 4.86530273 -4.75488281 4.18530273 C-6.40488281 4.84530273 -8.05488281 5.50530273 -9.75488281 6.18530273 C-9.75488281 4.86530273 -9.75488281 3.54530273 -9.75488281 2.18530273 C-10.74488281 2.51530273 -11.73488281 2.84530273 -12.75488281 3.18530273 C-13.08488281 5.49530273 -13.41488281 7.80530273 -13.75488281 10.18530273 C-14.74488281 10.51530273 -15.73488281 10.84530273 -16.75488281 11.18530273 C-16.75488281 10.52530273 -16.75488281 9.86530273 -16.75488281 9.18530273 C-18.07488281 9.18530273 -19.39488281 9.18530273 -20.75488281 9.18530273 C-20.75488281 7.86530273 -20.75488281 6.54530273 -20.75488281 5.18530273 C-21.41488281 5.18530273 -22.07488281 5.18530273 -22.75488281 5.18530273 C-22.75488281 4.52530273 -22.75488281 3.86530273 -22.75488281 3.18530273 C-25.72488281 2.69030273 -25.72488281 2.69030273 -28.75488281 2.18530273 C-28.75488281 1.85530273 -28.75488281 1.52530273 -28.75488281 1.18530273 C-19.19079672 -0.01851981 -9.62209392 -0.00086499 0 0 Z " transform="translate(236.7548828125,996.814697265625)" style="fill: #363525;"/><path d="M0 0 C-0.33 4.29 -0.66 8.58 -1 13 C-7.93 13 -14.86 13 -22 13 C-22 12.34 -22 11.68 -22 11 C-22.66 11 -23.32 11 -24 11 C-24 10.34 -24 9.68 -24 9 C-23.34 9 -22.68 9 -22 9 C-22.33 8.34 -22.66 7.68 -23 7 C-23.99 7.33 -24.98 7.66 -26 8 C-26.33 6.68 -26.66 5.36 -27 4 C-23.60194308 2.13654943 -21.29564298 1.95137933 -17.5625 2.5 C-12.58915926 3.20221588 -9.22364888 2.20712368 -4.8125 -0.1875 C-3 -1 -3 -1 0 0 Z " transform="translate(305,1011)" style="fill: #222419;"/><path d="M0 0 C0.33 0.99 0.66 1.98 1 3 C2.32 3 3.64 3 5 3 C4.67 5.31 4.34 7.62 4 10 C0.04 9.67 -3.92 9.34 -8 9 C-8 9.99 -8 10.98 -8 12 C-8.99 12.495 -8.99 12.495 -10 13 C-10.33 13.99 -10.66 14.98 -11 16 C-11.66 16 -12.32 16 -13 16 C-13 17.32 -13 18.64 -13 20 C-14.32 19.67 -15.64 19.34 -17 19 C-17 18.01 -17 17.02 -17 16 C-16.34 16 -15.68 16 -15 16 C-14.67 14.35 -14.34 12.7 -14 11 C-15.65 10.67 -17.3 10.34 -19 10 C-19 8.68 -19 7.36 -19 6 C-19.99 5.67 -20.98 5.34 -22 5 C-21.34 4.34 -20.68 3.68 -20 3 C-20 2.67 -20 2.34 -20 2 C-18.824375 2.04125 -17.64875 2.0825 -16.4375 2.125 C-10.71782423 2.14521087 -5.7327371 -0.34743861 0 0 Z " transform="translate(591,984)" style="fill: #313128;"/><path d="M0 0 C0.495 1.485 0.495 1.485 1 3 C5.29 3 9.58 3 14 3 C10.48283697 6.51716303 8.80432667 6.54676163 4 7 C4 6.34 4 5.68 4 5 C2.52466797 5.10828125 2.52466797 5.10828125 1.01953125 5.21875 C-8.43705765 5.86519651 -17.82617404 6.08827966 -27.30541992 5.96289062 C-28.16369385 5.95451172 -29.02196777 5.94613281 -29.90625 5.9375 C-30.67259766 5.92589844 -31.43894531 5.91429687 -32.22851562 5.90234375 C-34.02625651 5.80388539 -34.02625651 5.80388539 -35 7 C-37.18639453 7.07258946 -39.37500389 7.08373783 -41.5625 7.0625 C-43.35880859 7.04896484 -43.35880859 7.04896484 -45.19140625 7.03515625 C-46.11824219 7.02355469 -47.04507813 7.01195312 -48 7 C-48.33 7.66 -48.66 8.32 -49 9 C-49 8.01 -49 7.02 -49 6 C-56.92 6.495 -56.92 6.495 -65 7 C-65 6.34 -65 5.68 -65 5 C-66.32 5.33 -67.64 5.66 -69 6 C-67 3 -67 3 -64.94140625 2.453125 C-64.15636719 2.38609375 -63.37132812 2.3190625 -62.5625 2.25 C-61.78003906 2.17265625 -60.99757813 2.0953125 -60.19140625 2.015625 C-58 2 -58 2 -55 3 C-53.453125 2.7525 -53.453125 2.7525 -51.875 2.5 C-48.7529977 2.09716099 -46.8518236 2.0462132 -43.84594727 2.46264648 C-39.07392887 3.04146175 -34.39208019 3.1283839 -29.58984375 3.09765625 C-28.31047691 3.09553383 -28.31047691 3.09553383 -27.00526428 3.09336853 C-24.31597184 3.08782939 -21.62676672 3.0752888 -18.9375 3.0625 C-17.09961059 3.05747712 -15.26171985 3.0529156 -13.42382812 3.04882812 C-8.94918578 3.03788 -4.47460762 3.02065839 0 3 C0 2.01 0 1.02 0 0 Z " transform="translate(127,995)" style="fill: #514A41;"/><path d="M0 0 C0.81791016 0.19916016 0.81791016 0.19916016 1.65234375 0.40234375 C7.09902987 1.67789247 12.43120352 2.46963843 18 3 C17.67 3.66 17.34 4.32 17 5 C18.25541557 7.51083114 19.50063488 7.87125446 22 9 C22 9.33 22 9.66 22 10 C12.76 10 3.52 10 -6 10 C-6.33 8.68 -6.66 7.36 -7 6 C-6.01 5.34 -5.02 4.68 -4 4 C-4 4.99 -4 5.98 -4 7 C-2.68 6.67 -1.36 6.34 0 6 C0 4.02 0 2.04 0 0 Z " transform="translate(313,1014)" style="fill: #1D2015;"/><path d="M0 0 C2.475 0.495 2.475 0.495 5 1 C5 1.99 5 2.98 5 4 C5.66 4.33 6.32 4.66 7 5 C7 4.34 7 3.68 7 3 C8.98 2.34 10.96 1.68 13 1 C13.33 2.32 13.66 3.64 14 5 C12.02 5.99 12.02 5.99 10 7 C10.66 8.65 11.32 10.3 12 12 C11.01 12.33 10.02 12.66 9 13 C8.79375 12.195625 8.5875 11.39125 8.375 10.5625 C7.694375 9.2940625 7.694375 9.2940625 7 8 C2.91940263 6.79343376 2.91940263 6.79343376 -1 8 C-0.01 8.33 0.98 8.66 2 9 C1.67 9.99 1.34 10.98 1 12 C0.67 11.34 0.34 10.68 0 10 C-1.32 10 -2.64 10 -4 10 C-4 10.66 -4 11.32 -4 12 C-4.66 12 -5.32 12 -6 12 C-6.33 11.01 -6.66 10.02 -7 9 C-8.65 8.67 -10.3 8.34 -12 8 C-12 7.34 -12 6.68 -12 6 C-14.97 5.505 -14.97 5.505 -18 5 C-18 4.34 -18 3.68 -18 3 C-12.29014022 2.25983299 -6.75813575 1.89530662 -1 2 C-0.67 1.34 -0.34 0.68 0 0 Z " transform="translate(487,988)" style="fill: #2C2C1F;"/><path d="M0 0 C1.67056149 0.31323028 3.33605325 0.65334443 5 1 C6.53826603 1.25098025 8.08044202 1.47870796 9.625 1.6875 C10.75808594 1.84798828 10.75808594 1.84798828 11.9140625 2.01171875 C14.31164368 2.1894721 14.31164368 2.1894721 17 0 C21.68754321 -0.51791208 26.4362489 -0.173536 31 1 C31.763125 1.185625 32.52625 1.37125 33.3125 1.5625 C33.869375 1.706875 34.42625 1.85125 35 2 C31.89729921 3.82176927 29.82187357 4.1820063 26.25 4 C21.44107279 3.88651499 17.62129459 4.72516011 13 6 C11.68 6 10.36 6 9 6 C9 5.34 9 4.68 9 4 C4.41642624 4.13882854 -0.16678696 4.28726748 -4.75 4.4375 C-6.05195313 4.47681641 -7.35390625 4.51613281 -8.6953125 4.55664062 C-9.94570312 4.59853516 -11.19609375 4.64042969 -12.484375 4.68359375 C-13.63647461 4.72025146 -14.78857422 4.75690918 -15.97558594 4.79467773 C-18.47740224 4.96452174 -20.61091168 5.27968475 -23 6 C-23 4.68 -23 3.36 -23 2 C-16.3391395 1.27851414 -9.81811871 0.91063754 -3.1171875 1.0625 C-1.01402201 1.24266666 -1.01402201 1.24266666 0 0 Z " transform="translate(23,997)" style="fill: #50493D;"/><path d="M0 0 C0.33 0.66 0.66 1.32 1 2 C3.39591038 2.02712351 5.79150957 2.0468982 8.1875 2.0625 C8.86103516 2.07087891 9.53457031 2.07925781 10.22851562 2.08789062 C13.97556476 2.10616891 17.34385342 1.751263 21 1 C23.71501896 1.14688584 26.3055377 1.58898033 29 2 C28.67 2.66 28.34 3.32 28 4 C27.175 3.773125 26.35 3.54625 25.5 3.3125 C22.04226364 3.00377354 21.13282982 3.18630358 18.125 4.5 C13.71116938 6.38312079 10.65821003 5.91500554 6 5 C6 5.66 6 6.32 6 7 C5.01 7 4.02 7 3 7 C2.67 6.01 2.34 5.02 2 4 C1.44570313 4.30679688 0.89140625 4.61359375 0.3203125 4.9296875 C-2.1725132 6.0795768 -4.43092539 6.61835313 -7.125 7.125 C-7.99382813 7.29257812 -8.86265625 7.46015625 -9.7578125 7.6328125 C-12 8 -12 8 -14 8 C-15.66965451 8.31802943 -17.33678518 8.64984951 -19 9 C-19 7.68 -19 6.36 -19 5 C-18.21625 4.71125 -17.4325 4.4225 -16.625 4.125 C-13.90328368 3.15087746 -13.90328368 3.15087746 -12 1 C-9.98943317 1.25942798 -7.97890155 1.52311012 -5.9765625 1.83984375 C-3.47980895 2.04214987 -2.02933724 1.43744721 0 0 Z M-13 8 C-12.67 8.99 -12.34 9.98 -12 11 C-12.66 11 -13.32 11 -14 11 C-13.67 10.01 -13.34 9.02 -13 8 Z " transform="translate(520,988)" style="fill: #343426;"/><path d="M0 0 C0.33 0.66 0.66 1.32 1 2 C2.65 1.34 4.3 0.68 6 0 C6.66 0.66 7.32 1.32 8 2 C10.58064129 2.14497985 13.04943884 2.18677545 15.625 2.125 C16.33140625 2.11597656 17.0378125 2.10695313 17.765625 2.09765625 C19.51056098 2.07407603 21.25532295 2.03820461 23 2 C23.33 1.34 23.66 0.68 24 0 C24 0.66 24 1.32 24 2 C24.64324219 1.855625 25.28648437 1.71125 25.94921875 1.5625 C33.97408381 -0.08597442 42.4738131 -1.15372737 50.58203125 0.5390625 C53.18006626 1.03432604 55.20045889 0.91337119 57.8125 0.5625 C58.99779297 0.40974609 58.99779297 0.40974609 60.20703125 0.25390625 C60.79871094 0.17011719 61.39039063 0.08632813 62 0 C62.495 0.99 62.495 0.99 63 2 C59.80264219 3.06578594 57.6127917 3.0857117 54.2578125 3.02734375 C53.10796875 3.01509766 51.958125 3.00285156 50.7734375 2.99023438 C48.38013955 2.95564174 45.98689934 2.91672715 43.59375 2.87304688 C34.83177876 2.79047841 26.25203899 3.35618573 17.74267578 5.59350586 C15.51923095 6.11214352 14.21838534 5.55459633 12 5 C8.14966411 4.78912968 4.69821295 4.76726235 1 6 C-1.6875 5.5625 -1.6875 5.5625 -4 5 C-2.68 3.35 -1.36 1.7 0 0 Z " transform="translate(145,995)" style="fill: #524C43;"/><path d="M0 0 C2.64 0 5.28 0 8 0 C8 0.66 8 1.32 8 2 C8.84304687 1.75443359 8.84304687 1.75443359 9.703125 1.50390625 C12.13059056 0.97135003 14.26889681 0.90101319 16.75 0.9375 C17.54921875 0.94652344 18.3484375 0.95554687 19.171875 0.96484375 C19.77515625 0.97644531 20.3784375 0.98804688 21 1 C21 1.99 21 2.98 21 4 C20.67 3.34 20.34 2.68 20 2 C19.01 2 18.02 2 17 2 C16.566875 3.11375 16.566875 3.11375 16.125 4.25 C15.17697356 6.56739797 14.15154089 8.77917115 13 11 C12.01 10.67 11.02 10.34 10 10 C10.33 9.01 10.66 8.02 11 7 C10.443125 7.639375 9.88625 8.27875 9.3125 8.9375 C6.77933439 11.19680987 5.31658576 11.63149047 2 12 C1.15901344 7.98195309 0.94595055 4.98196457 2 1 C1.34 0.67 0.68 0.34 0 0 Z M-2 1 C0 2 0 2 0 2 Z " transform="translate(54,1000)" style="fill: #3A372A;"/><path d="M0 0 C2.5859375 0.11328125 2.5859375 0.11328125 4.4609375 1.61328125 C4.8321875 2.10828125 5.2034375 2.60328125 5.5859375 3.11328125 C3.60026042 3.08072917 1.61458333 3.04817708 -0.37109375 3.015625 C-2.61711711 3.03064908 -2.61711711 3.03064908 -5.4140625 4.11328125 C-8.64411607 4.14346867 -11.8611771 4.04687258 -15.08984375 3.953125 C-18.54870285 4.11976804 -21.17116603 4.95808637 -24.4140625 6.11328125 C-26.7890625 5.73828125 -26.7890625 5.73828125 -28.4140625 5.11328125 C-28.4140625 5.77328125 -28.4140625 6.43328125 -28.4140625 7.11328125 C-27.7540625 7.11328125 -27.0940625 7.11328125 -26.4140625 7.11328125 C-26.4140625 7.77328125 -26.4140625 8.43328125 -26.4140625 9.11328125 C-27.4040625 8.78328125 -28.3940625 8.45328125 -29.4140625 8.11328125 C-29.4140625 7.45328125 -29.4140625 6.79328125 -29.4140625 6.11328125 C-30.0740625 6.11328125 -30.7340625 6.11328125 -31.4140625 6.11328125 C-31.0840625 7.43328125 -30.7540625 8.75328125 -30.4140625 10.11328125 C-31.7340625 9.78328125 -33.0540625 9.45328125 -34.4140625 9.11328125 C-34.7440625 9.77328125 -35.0740625 10.43328125 -35.4140625 11.11328125 C-36.4040625 10.45328125 -37.3940625 9.79328125 -38.4140625 9.11328125 C-36.89258917 5.86888515 -36.0697123 4.38043267 -32.69140625 3.00390625 C-21.80057298 0.91490431 -11.05822232 0.36692042 0 0 Z " transform="translate(461.4140625,989.88671875)" style="fill: #2D2E20;"/><path d="M0 0 C1.32 0.66 2.64 1.32 4 2 C4 4.97 4 7.94 4 11 C-0.62 11 -5.24 11 -10 11 C-10 8.69 -10 6.38 -10 4 C-8.906875 3.71125 -7.81375 3.4225 -6.6875 3.125 C-2.95986155 2.18106796 -2.95986155 2.18106796 0 0 Z " transform="translate(480,1013)" style="fill: #25251B;"/><path d="M0 0 C-0.66 2.31 -1.32 4.62 -2 7 C-1.01 7.33 -0.02 7.66 1 8 C0.34 8 -0.32 8 -1 8 C-1 8.66 -1 9.32 -1 10 C-1.66 10 -2.32 10 -3 10 C-3.33 9.34 -3.66 8.68 -4 8 C-6.31 8 -8.62 8 -11 8 C-11.33 8.66 -11.66 9.32 -12 10 C-14.64 9.67 -17.28 9.34 -20 9 C-20.33 9.66 -20.66 10.32 -21 11 C-21.99 11.33 -22.98 11.66 -24 12 C-24 11.01 -24 10.02 -24 9 C-24.99 9 -25.98 9 -27 9 C-26.67 8.01 -26.34 7.02 -26 6 C-19.25 4.875 -19.25 4.875 -17 6 C-15.28766312 5.9129796 -13.57824594 5.75902838 -11.875 5.5625 C-10.96492188 5.46066406 -10.05484375 5.35882812 -9.1171875 5.25390625 C-8.41851562 5.17011719 -7.71984375 5.08632813 -7 5 C-7 4.01 -7 3.02 -7 2 C-7.99 1.67 -8.98 1.34 -10 1 C-6.78548731 -0.60725635 -3.56387464 -0.05748185 0 0 Z " transform="translate(52,1000)" style="fill: #39372B;"/><path d="M0 0 C1.32 0 2.64 0 4 0 C4 0.66 4 1.32 4 2 C4.825 1.835 5.65 1.67 6.5 1.5 C10.41272317 0.94103955 14.05183173 0.93192813 18 1 C18.8125 2.6875 18.8125 2.6875 19 5 C16.6875 7.75 16.6875 7.75 14 10 C13.34 10 12.68 10 12 10 C12 9.34 12 8.68 12 8 C9.525 7.01 9.525 7.01 7 6 C6.67 6.66 6.34 7.32 6 8 C6 7.34 6 6.68 6 6 C3.36 6 0.72 6 -2 6 C-2 4.68 -2 3.36 -2 2 C-1.34 2 -0.68 2 0 2 C0 1.34 0 0.68 0 0 Z " transform="translate(203,1010)" style="fill: #1D1F17;"/><path d="M0 0 C0 0.66 0 1.32 0 2 C2.31 2 4.62 2 7 2 C4.02139779 3.70974223 1.89635139 4.24859482 -1.52734375 4.23046875 C-2.39657471 4.22917969 -3.26580566 4.22789062 -4.16137695 4.2265625 C-5.07749756 4.21367188 -5.99361816 4.20078125 -6.9375 4.1875 C-8.33971802 4.17783203 -8.33971802 4.17783203 -9.77026367 4.16796875 C-16.88069964 4.08948847 -23.92468961 3.73509718 -31 3 C-31.33 3.99 -31.66 4.98 -32 6 C-38.6 5.34 -45.2 4.68 -52 4 C-52.33 4.66 -52.66 5.32 -53 6 C-53 5.01 -53 4.02 -53 3 C-51.15535156 3.03480469 -51.15535156 3.03480469 -49.2734375 3.0703125 C-47.6406311 3.08908039 -46.0078181 3.10727949 -44.375 3.125 C-43.56675781 3.14175781 -42.75851562 3.15851562 -41.92578125 3.17578125 C-37.12471586 3.2148143 -33.56534406 2.59912464 -29 1 C-25.6328125 0.83984375 -25.6328125 0.83984375 -22.125 0.9375 C-18.21402132 0.99918736 -14.43752551 1.05357507 -10.5625 0.5 C-6.94953542 -0.00708275 -3.63741487 -0.07577948 0 0 Z " transform="translate(351,992)" style="fill: #434135;"/><path d="M0 0 C6.875 0.875 6.875 0.875 8 2 C8.04080783 3.99958364 8.04254356 6.00045254 8 8 C7.22914063 8.06058594 6.45828125 8.12117187 5.6640625 8.18359375 C4.66117188 8.26738281 3.65828125 8.35117187 2.625 8.4375 C1.12839844 8.55931641 1.12839844 8.55931641 -0.3984375 8.68359375 C-2.97927613 8.84965626 -2.97927613 8.84965626 -5 10 C-5.66 9.67 -6.32 9.34 -7 9 C-6.67 7.02 -6.34 5.04 -6 3 C-5.195625 2.87625 -4.39125 2.7525 -3.5625 2.625 C-2.716875 2.41875 -1.87125 2.2125 -1 2 C-0.67 1.34 -0.34 0.68 0 0 Z " transform="translate(145,1008)" style="fill: #201F18;"/><path d="M0 0 C1.32 0 2.64 0 4 0 C4 0.66 4 1.32 4 2 C6.64 1.67 9.28 1.34 12 1 C12.12375 1.78375 12.2475 2.5675 12.375 3.375 C12.79117993 6.14057822 12.79117993 6.14057822 15 8 C13.68 8.33 12.36 8.66 11 9 C10.8453125 10.6396875 10.8453125 10.6396875 10.6875 12.3125 C10.02692273 15.85559629 9.7972908 16.93243723 7 19 C5.48596188 14.15507803 6.63397828 10.7408989 8 6 C3.545 5.01 3.545 5.01 -1 4 C-0.67 2.68 -0.34 1.36 0 0 Z " transform="translate(656,1000)" style="fill: #25271E;"/><path d="M0 0 C0.66 3.63 1.32 7.26 2 11 C1.01 11.495 1.01 11.495 0 12 C0.33 12.66 0.66 13.32 1 14 C-2.63 14 -6.26 14 -10 14 C-10 13.34 -10 12.68 -10 12 C-9.34 12 -8.68 12 -8 12 C-7.34 11.01 -6.68 10.02 -6 9 C-5.34 9 -4.68 9 -4 9 C-3.67 7.35 -3.34 5.7 -3 4 C-4.32 3.34 -5.64 2.68 -7 2 C-7 2.66 -7 3.32 -7 4 C-7.66 4 -8.32 4 -9 4 C-8.67 3.01 -8.34 2.02 -8 1 C-1.125 0 -1.125 0 0 0 Z " transform="translate(512,1010)" style="fill: #28281E;"/><path d="M0 0 C3.125 1 3.125 1 4.1875 2.62890625 C4.92481634 4.38357735 5.53300302 6.19112034 6.125 8 C5.135 8.495 5.135 8.495 4.125 9 C3.795 9.99 3.465 10.98 3.125 12 C2.465 12 1.805 12 1.125 12 C1.125 13.32 1.125 14.64 1.125 16 C-0.195 15.67 -1.515 15.34 -2.875 15 C-2.875 14.01 -2.875 13.02 -2.875 12 C-2.215 12 -1.555 12 -0.875 12 C-0.545 10.35 -0.215 8.7 0.125 7 C-1.525 6.67 -3.175 6.34 -4.875 6 C-3.79807692 0 -3.79807692 0 0 0 Z " transform="translate(576.875,988)" style="fill: #24261B;"/><path d="M0 0 C1.65 0.33 3.3 0.66 5 1 C5.33 1.99 5.66 2.98 6 4 C11.94 3.505 11.94 3.505 18 3 C17.67 4.65 17.34 6.3 17 8 C12.38 8 7.76 8 3 8 C3.33 7.01 3.66 6.02 4 5 C2.35 5 0.7 5 -1 5 C-0.67 3.35 -0.34 1.7 0 0 Z " transform="translate(99,1016)" style="fill: #28281B;"/><path d="M0 0 C3.31100381 0.22747354 6.61561171 0.39227196 9.93164062 0.51757812 C14.27833948 0.73308331 17.94273484 1.42677473 22 3 C22 3.33 22 3.66 22 4 C17.71 4 13.42 4 9 4 C8.67 4.66 8.34 5.32 8 6 C8 5.01 8 4.02 8 3 C0.08 3.495 0.08 3.495 -8 4 C-8 3.34 -8 2.68 -8 2 C-9.32 2.33 -10.64 2.66 -12 3 C-10 0 -10 0 -6.5625 -0.75 C-3 -1 -3 -1 0 0 Z " transform="translate(70,998)" style="fill: #474235;"/><path d="M0 0 C0.66 0 1.32 0 2 0 C1.67 3.3 1.34 6.6 1 10 C-2.63 10 -6.26 10 -10 10 C-8.76136364 5.04545455 -8.76136364 5.04545455 -6 3 C-4 3 -2 3 0 3 C0 2.01 0 1.02 0 0 Z " transform="translate(10,1014)" style="fill: #2A2B1B;"/><path d="M0 0 C0.66 1.32 1.32 2.64 2 4 C2.66 4 3.32 4 4 4 C4 4.99 4 5.98 4 7 C4.99 7.33 5.98 7.66 7 8 C1.72 8 -3.56 8 -9 8 C-9 7.34 -9 6.68 -9 6 C-8.01 6 -7.02 6 -6 6 C-5.67 5.01 -5.34 4.02 -5 3 C-4.34 3 -3.68 3 -3 3 C-3 2.34 -3 1.68 -3 1 C-2.01 0.67 -1.02 0.34 0 0 Z " transform="translate(572,1016)" style="fill: #201F19;"/><path d="M0 0 C0 0.99 0 1.98 0 3 C-3.47325181 4.1577506 -6.36067448 4.06866652 -10 4 C-10.33 4.66 -10.66 5.32 -11 6 C-11.33 5.34 -11.66 4.68 -12 4 C-13.65 4 -15.3 4 -17 4 C-16.34 2.68 -15.68 1.36 -15 0 C-14.05125 0.020625 -13.1025 0.04125 -12.125 0.0625 C-0.96428571 -0.16071429 -0.96428571 -0.16071429 0 0 Z " transform="translate(45,1002)" style="fill: #2D2B1C;"/><path d="M0 0 C9.24 0 18.48 0 28 0 C27.01 1.32 26.02 2.64 25 4 C25 3.01 25 2.02 25 1 C24.01 1.495 23.02 1.99 22 2.5 C17.86522766 4.30103581 14.46801547 4.23515871 10 4 C10 3.01 10 2.02 10 1 C6.7 1 3.4 1 0 1 C0 0.67 0 0.34 0 0 Z " transform="translate(384,995)" style="fill: #373525;"/><path d="M0 0 C0.33 0.66 0.66 1.32 1 2 C2.65 1.34 4.3 0.68 6 0 C6.66 0.66 7.32 1.32 8 2 C10.10340456 2.38639454 10.10340456 2.38639454 12.4375 2.5 C15.93809684 2.73068183 16.94225845 2.96150563 20 5 C16.83389453 6.01767676 15.16968298 5.79242075 12 5 C8.14966411 4.78912968 4.69821295 4.76726235 1 6 C-1.6875 5.5625 -1.6875 5.5625 -4 5 C-2.68 3.35 -1.36 1.7 0 0 Z " transform="translate(145,995)" style="fill: #504A40;"/><path d="M0 0 C3.16868055 0.23200359 5.93917192 0.51488022 8.96484375 1.5234375 C8.96484375 2.8434375 8.96484375 4.1634375 8.96484375 5.5234375 C4.01484375 5.5234375 -0.93515625 5.5234375 -6.03515625 5.5234375 C-2.03515625 0.5234375 -2.03515625 0.5234375 0 0 Z " transform="translate(346.03515625,1018.4765625)" style="fill: #1C1D14;"/><path d="M0 0 C2.546875 0.1171875 2.546875 0.1171875 4.421875 1.6171875 C4.793125 2.1121875 5.164375 2.6071875 5.546875 3.1171875 C3.56119792 3.08463542 1.57552083 3.05208333 -0.41015625 3.01953125 C-2.65617961 3.03455533 -2.65617961 3.03455533 -5.453125 4.1171875 C-12.15195652 4.53509626 -18.80512807 3.90928926 -25.453125 3.1171875 C-21.47500089 0.47227255 -17.19188076 0.67107302 -12.578125 0.4921875 C-11.39283203 0.43417969 -11.39283203 0.43417969 -10.18359375 0.375 C-6.79009495 0.21690022 -3.39519313 0.11522149 0 0 Z " transform="translate(461.453125,989.8828125)" style="fill: #423F35;"/><path d="M0 0 C2.31 0.33 4.62 0.66 7 1 C7.6875 3.3125 7.6875 3.3125 8 6 C6.48151913 8.23776128 5.38757109 8.87819194 2.8125 9.6875 C1.9153125 9.8421875 1.9153125 9.8421875 1 10 C1 9.34 1 8.68 1 8 C0.01 8 -0.98 8 -2 8 C-2 7.01 -2 6.02 -2 5 C-1.34 4.67 -0.68 4.34 0 4 C0 2.68 0 1.36 0 0 Z " transform="translate(458,994)" style="fill: #242518;"/><path d="M0 0 C2.475 0.495 2.475 0.495 5 1 C4.67 2.32 4.34 3.64 4 5 C3.67 4.01 3.34 3.02 3 2 C2.34 2 1.68 2 1 2 C1 2.99 1 3.98 1 5 C-5.27 5 -11.54 5 -18 5 C-18 4.34 -18 3.68 -18 3 C-12.29014022 2.25983299 -6.75813575 1.89530662 -1 2 C-0.67 1.34 -0.34 0.68 0 0 Z " transform="translate(487,988)" style="fill: #3E3C30;"/><path d="M0 0 C0 0.99 0 1.98 0 3 C0.66 3 1.32 3 2 3 C2 3.66 2 4.32 2 5 C2.66 5 3.32 5 4 5 C4 5.99 4 6.98 4 8 C-0.62 8 -5.24 8 -10 8 C-10 7.67 -10 7.34 -10 7 C-8.35 6.67 -6.7 6.34 -5 6 C-4.814375 4.7934375 -4.814375 4.7934375 -4.625 3.5625 C-4.41875 2.716875 -4.2125 1.87125 -4 1 C-2 0 -2 0 0 0 Z M-4 4 C-3.34 4.66 -2.68 5.32 -2 6 C-2 5.34 -2 4.68 -2 4 C-2.66 4 -3.32 4 -4 4 Z " transform="translate(93,1016)" style="fill: #2C2C21;"/><path d="M0 0 C3.96 0.33 7.92 0.66 12 1 C11.34 1.66 10.68 2.32 10 3 C10.99 3.33 11.98 3.66 13 4 C12.67 4.99 12.34 5.98 12 7 C11.67 6.34 11.34 5.68 11 5 C9.68 5 8.36 5 7 5 C7 5.66 7 6.32 7 7 C6.34 7 5.68 7 5 7 C4.67 6.01 4.34 5.02 4 4 C2.35 3.67 0.7 3.34 -1 3 C-0.67 2.01 -0.34 1.02 0 0 Z " transform="translate(476,993)" style="fill: #262618;"/><path d="M0 0 C2.10388569 -0.05402274 4.20816714 -0.09280256 6.3125 -0.125 C8.07013672 -0.15980469 8.07013672 -0.15980469 9.86328125 -0.1953125 C13 0 13 0 16 2 C14.8125 3.5625 14.8125 3.5625 13 5 C10.3125 4.6875 10.3125 4.6875 8 4 C8 4.66 8 5.32 8 6 C7.34 6 6.68 6 6 6 C5.67 4.35 5.34 2.7 5 1 C3.35 1 1.7 1 0 1 C0 0.67 0 0.34 0 0 Z " transform="translate(320,995)" style="fill: #333127;"/><path d="M0 0 C-0.33 0.66 -0.66 1.32 -1 2 C-2.11375 1.95875 -3.2275 1.9175 -4.375 1.875 C-8.65880817 1.8521327 -12.55333617 2.64914082 -16.703125 3.66015625 C-19.1618594 4.02394858 -20.62973934 3.62194856 -23 3 C-23.99 3.33 -24.98 3.66 -26 4 C-26.33 3.34 -26.66 2.68 -27 2 C-19.41904086 -1.79047957 -8.27204071 -0.09926449 0 0 Z " transform="translate(193,997)" style="fill: #423E32;"/><path d="M0 0 C4.62 0 9.24 0 14 0 C14 0.66 14 1.32 14 2 C10.52674819 3.1577506 7.63932552 3.06866652 4 3 C3.67 3.99 3.34 4.98 3 6 C2.67 5.34 2.34 4.68 2 4 C1.34 4 0.68 4 0 4 C0 2.68 0 1.36 0 0 Z " transform="translate(195,1018)" style="fill: #343629;"/><path d="M0 0 C3 2 3 2 3.73046875 4.6015625 C3.88128906 5.59929688 4.03210938 6.59703125 4.1875 7.625 C4.34605469 8.62789062 4.50460937 9.63078125 4.66796875 10.6640625 C4.77753906 11.43492187 4.88710938 12.20578125 5 13 C4.01 13 3.02 13 2 13 C2 12.34 2 11.68 2 11 C1.34 10.67 0.68 10.34 0 10 C-0.77811718 6.18015204 -1.24386556 3.73159669 0 0 Z " transform="translate(266,1011)" style="fill: #26261D;"/><path d="M0 0 C0 0.66 0 1.32 0 2 C-0.99 2 -1.98 2 -3 2 C-3.33 3.65 -3.66 5.3 -4 7 C-4.66 5.68 -5.32 4.36 -6 3 C-7.32 3.33 -8.64 3.66 -10 4 C-10 5.65 -10 7.3 -10 9 C-11.0625 7.1875 -11.0625 7.1875 -12 5 C-11 2 -11 2 -8.8125 0.8125 C-5.74609689 -0.07334979 -3.17561845 -0.14770318 0 0 Z " transform="translate(134,1010)" style="fill: #3D3A2F;"/><path d="M0 0 C3.85645121 -0.22036864 6.49223216 0.39644899 10 2 C9.43628586 5.26954202 8.50037734 6.82575883 6 9 C5.67 7.35 5.34 5.7 5 4 C4.34 4 3.68 4 3 4 C3 3.34 3 2.68 3 2 C2.01 2 1.02 2 0 2 C0 1.34 0 0.68 0 0 Z " transform="translate(743,990)" style="fill: #2C2C1F;"/><path d="M0 0 C-2 2 -2 2 -5 3 C-5.33 3.66 -5.66 4.32 -6 5 C-7.32 5 -8.64 5 -10 5 C-10 4.34 -10 3.68 -10 3 C-12.97 2.505 -12.97 2.505 -16 2 C-16 1.67 -16 1.34 -16 1 C-14.27111445 0.83044205 -12.54187557 0.66448486 -10.8125 0.5 C-9.84957031 0.4071875 -8.88664063 0.314375 -7.89453125 0.21875 C-5.24812333 0.01875156 -2.65239135 -0.03879183 0 0 Z " transform="translate(224,997)" style="fill: #403B2F;"/><path d="M0 0 C0.99 0.33 1.98 0.66 3 1 C4 4 4 4 3 6 C3.66 6 4.32 6 5 6 C5 6.66 5 7.32 5 8 C4.34 8 3.68 8 3 8 C2.67 8.66 2.34 9.32 2 10 C2.66 10.33 3.32 10.66 4 11 C2.515 11.99 2.515 11.99 1 13 C0.40667939 8.62426048 -0.13827236 4.42471556 0 0 Z " transform="translate(206,998)" style="fill: #353327;"/><path d="M0 0 C1.67542976 0.28604898 3.34385343 0.61781233 5 1 C1.95318939 3.03120707 1.39881676 3.24659875 -2.01171875 3.1953125 C-2.76904297 3.18886719 -3.52636719 3.18242188 -4.30664062 3.17578125 C-5.09232422 3.15902344 -5.87800781 3.14226563 -6.6875 3.125 C-7.48478516 3.11597656 -8.28207031 3.10695313 -9.10351562 3.09765625 C-11.069139 3.07411585 -13.03460775 3.03824547 -15 3 C-15 2.34 -15 1.68 -15 1 C-14.00097656 1.01160156 -13.00195312 1.02320313 -11.97265625 1.03515625 C-10.68230469 1.04417969 -9.39195313 1.05320312 -8.0625 1.0625 C-6.13083984 1.07990234 -6.13083984 1.07990234 -4.16015625 1.09765625 C-1.13701597 1.36532549 -1.13701597 1.36532549 0 0 Z " transform="translate(23,997)" style="fill: #585145;"/><path d="M0 0 C0.99 0 1.98 0 3 0 C3.66 1.32 4.32 2.64 5 4 C3 6 3 6 1.0546875 6.1953125 C-0.96354167 6.13020833 -2.98177083 6.06510417 -5 6 C-4.67 5.34 -4.34 4.68 -4 4 C-3.01 4 -2.02 4 -1 4 C-0.67 2.68 -0.34 1.36 0 0 Z " transform="translate(669,1018)" style="fill: #26241F;"/><path d="M0 0 C-0.66 1.32 -1.32 2.64 -2 4 C-5.63 3.67 -9.26 3.34 -13 3 C-12.67 2.34 -12.34 1.68 -12 1 C-7.973409 0.22565558 -4.09613971 -0.12412545 0 0 Z " transform="translate(596,990)" style="fill: #212217;"/><path d="M0 0 C0 0.33 0 0.66 0 1 C-1.74784829 1.36463732 -3.49840502 1.7163078 -5.25 2.0625 C-6.71179688 2.35833984 -6.71179688 2.35833984 -8.203125 2.66015625 C-12.53420962 3.18641933 -14.37508934 2.41660711 -18 0 C-11.74692761 -0.83288874 -6.23182639 -1.03863773 0 0 Z " transform="translate(32,1001)" style="fill: #3E3A2C;"/><path d="M0 0 C-2.06756277 2.7972908 -3.14440371 3.02692273 -6.6875 3.6875 C-7.780625 3.790625 -8.87375 3.89375 -10 4 C-10 3.34 -10 2.68 -10 2 C-10.99 1.67 -11.98 1.34 -13 1 C-8.59085217 -0.10228696 -4.51617599 -0.07654536 0 0 Z " transform="translate(141,998)" style="fill: #474235;"/><path d="M0 0 C1.32 0.66 2.64 1.32 4 2 C4 2.33 4 2.66 4 3 C-0.62 3 -5.24 3 -10 3 C-10 2.34 -10 1.68 -10 1 C-9.36191406 1.01160156 -8.72382813 1.02320313 -8.06640625 1.03515625 C-7.24011719 1.04417969 -6.41382813 1.05320312 -5.5625 1.0625 C-4.32693359 1.07990234 -4.32693359 1.07990234 -3.06640625 1.09765625 C-1.00836062 1.23267348 -1.00836062 1.23267348 0 0 Z " transform="translate(331,1021)" style="fill: #21241B;"/><path d="M0 0 C2.31 0 4.62 0 7 0 C7 0.99 7 1.98 7 3 C7.99 3.33 8.98 3.66 10 4 C7.36 4 4.72 4 2 4 C2 3.34 2 2.68 2 2 C1.34 2 0.68 2 0 2 C0 1.34 0 0.68 0 0 Z " transform="translate(569,1020)" style="fill: #262720;"/><path d="M0 0 C1.65 0.33 3.3 0.66 5 1 C4.67 2.32 4.34 3.64 4 5 C2.35 5 0.7 5 -1 5 C-0.67 3.35 -0.34 1.7 0 0 Z " transform="translate(99,1016)" style="fill: #212114;"/><path d="M0 0 C1.32 0 2.64 0 4 0 C4 1.98 4 3.96 4 6 C2.35 6 0.7 6 -1 6 C-0.67 4.02 -0.34 2.04 0 0 Z " transform="translate(149,1010)" style="fill: #1A1913;"/><path d="M0 0 C2.97 0 5.94 0 9 0 C9.33 0.66 9.66 1.32 10 2 C10.99 2.33 11.98 2.66 13 3 C11.02 3.33 9.04 3.66 7 4 C7 3.34 7 2.68 7 2 C4.69 2 2.38 2 0 2 C0 1.34 0 0.68 0 0 Z " transform="translate(25,999)" style="fill: #484435;"/><path d="M0 0 C-0.33 0.66 -0.66 1.32 -1 2 C-8.425 1.01 -8.425 1.01 -16 0 C-16 -0.33 -16 -0.66 -16 -1 C-10.15659442 -2.24327778 -5.73303505 -1.57300962 0 0 Z " transform="translate(165,999)" style="fill: #484438;"/><path d="M0 0 C1.2065625 0.0309375 1.2065625 0.0309375 2.4375 0.0625 C2.7675 1.3825 3.0975 2.7025 3.4375 4.0625 C2.4475 4.3925 1.4575 4.7225 0.4375 5.0625 C0.4375 4.0725 0.4375 3.0825 0.4375 2.0625 C-0.2225 2.0625 -0.8825 2.0625 -1.5625 2.0625 C-2.2225 3.3825 -2.8825 4.7025 -3.5625 6.0625 C-3.605221 4.39638095 -3.60313832 2.72867115 -3.5625 1.0625 C-2.5625 0.0625 -2.5625 0.0625 0 0 Z " transform="translate(473.5625,1017.9375)" style="fill: #2F2F23;"/><path d="M0 0 C-0.33 0.66 -0.66 1.32 -1 2 C-1.969375 1.814375 -2.93875 1.62875 -3.9375 1.4375 C-4.948125 1.293125 -5.95875 1.14875 -7 1 C-7.33 1.33 -7.66 1.66 -8 2 C-10.67058851 2.14115161 -13.32432238 2.04247107 -16 2 C-10.7810127 -1.47932486 -6.0800146 -1.94560467 0 0 Z " transform="translate(549,990)" style="fill: #34342A;"/><path d="M0 0 C0.33 0.99 0.66 1.98 1 3 C-2 4 -2 4 -4.4375 3.5 C-7.06834251 2.98666488 -8.49324027 3.16441342 -11 4 C-7.65667474 -0.27945633 -5.29105716 -0.4070044 0 0 Z " transform="translate(674,982)" style="fill: #323229;"/><path d="M0 0 C1.98 0.495 1.98 0.495 4 1 C4 2.65 4 4.3 4 6 C2.35 6 0.7 6 -1 6 C-0.67 4.02 -0.34 2.04 0 0 Z " transform="translate(626,1018)" style="fill: #191A13;"/><path d="M0 0 C2.64 0 5.28 0 8 0 C7.67 1.32 7.34 2.64 7 4 C4.69 3.67 2.38 3.34 0 3 C0 2.01 0 1.02 0 0 Z " transform="translate(300,1005)" style="fill: #242316;"/><path d="M0 0 C0 2.64 0 5.28 0 8 C-2.475 7.01 -2.475 7.01 -5 6 C-4.6875 4.125 -4.6875 4.125 -4 2 C-1 0 -1 0 0 0 Z " transform="translate(257,1016)" style="fill: #232319;"/><path d="M0 0 C2.475 0.99 2.475 0.99 5 2 C5 2.99 5 3.98 5 5 C3.02 5 1.04 5 -1 5 C-1 1 -1 1 0 0 Z " transform="translate(574,988)" style="fill: #1D1D13;"/><path d="M0 0 C0.33 0.99 0.66 1.98 1 3 C0.01 3.66 -0.98 4.32 -2 5 C-2 5.99 -2 6.98 -2 8 C-2.99 8 -3.98 8 -5 8 C-5.3125 5.6875 -5.3125 5.6875 -5 3 C-2.5 1.1875 -2.5 1.1875 0 0 Z " transform="translate(661,982)" style="fill: #2C2E23;"/><path d="M0 0 C0.99 0 1.98 0 3 0 C3 2.64 3 5.28 3 8 C2.01 8.495 2.01 8.495 1 9 C0.67 6.03 0.34 3.06 0 0 Z " transform="translate(591,1013)" style="fill: #292922;"/><path d="M0 0 C2 0 2 0 4.125 1.875 C6 4 6 4 6 6 C2.25 7.125 2.25 7.125 0 6 C0 4.02 0 2.04 0 0 Z " transform="translate(430,996)" style="fill: #1D1D12;"/><path d="M0 0 C1.35158203 0.15275391 1.35158203 0.15275391 2.73046875 0.30859375 C3.41753906 0.39238281 4.10460937 0.47617187 4.8125 0.5625 C2.8125 2.5625 2.8125 2.5625 0.2109375 2.7578125 C-0.78679687 2.73460937 -1.78453125 2.71140625 -2.8125 2.6875 C-4.31683594 2.66042969 -4.31683594 2.66042969 -5.8515625 2.6328125 C-6.62242187 2.60960937 -7.39328125 2.58640625 -8.1875 2.5625 C-8.1875 1.9025 -8.1875 1.2425 -8.1875 0.5625 C-4.98734144 -0.50421952 -3.30205706 -0.38595472 0 0 Z " transform="translate(468.1875,992.4375)" style="fill: #353425;"/><path d="M0 0 C2.7972908 2.06756277 3.02692273 3.14440371 3.6875 6.6875 C3.790625 7.780625 3.89375 8.87375 4 10 C3.01 10 2.02 10 1 10 C1 8.02 1 6.04 1 4 C0.34 4 -0.32 4 -1 4 C-0.67 2.68 -0.34 1.36 0 0 Z " transform="translate(264,1014)" style="fill: #323228;"/><path d="M0 0 C2.00720923 0.28674418 4.0085944 0.61866701 6 1 C6 1.66 6 2.32 6 3 C2.37 3 -1.26 3 -5 3 C-3.68 2.34 -2.36 1.68 -1 1 C-0.67 0.67 -0.34 0.34 0 0 Z " transform="translate(213,995)" style="fill: #564F47;"/><path d="M0 0 C-6.25 3.125 -6.25 3.125 -10.625 2.5625 C-11.85089844 2.40974609 -11.85089844 2.40974609 -13.1015625 2.25390625 C-13.72804688 2.17011719 -14.35453125 2.08632813 -15 2 C-15 1.67 -15 1.34 -15 1 C-10.03926578 -0.32286246 -5.08888488 -0.08893197 0 0 Z " transform="translate(443,993)" style="fill: #343526;"/><path d="M0 0 C0.99 0 1.98 0 3 0 C3 1.65 3 3.3 3 5 C0.03 4.505 0.03 4.505 -3 4 C-2.67 3.34 -2.34 2.68 -2 2 C-1.34 2 -0.68 2 0 2 C0 1.34 0 0.68 0 0 Z " transform="translate(42,1009)" style="fill: #222013;"/><path d="M0 0 C1.98 0.495 1.98 0.495 4 1 C3.67 2.32 3.34 3.64 3 5 C2.34 5 1.68 5 1 5 C0.67 5.66 0.34 6.32 0 7 C-0.93423645 3.98968256 -1.04449911 3.13349732 0 0 Z " transform="translate(48,1009)" style="fill: #242218;"/><path d="M0 0 C2.31 0.33 4.62 0.66 7 1 C6.67 1.99 6.34 2.98 6 4 C3.03 3.505 3.03 3.505 0 3 C0 2.01 0 1.02 0 0 Z " transform="translate(110,1001)" style="fill: #2E291D;"/><path d="M0 0 C1.65 0.33 3.3 0.66 5 1 C5.33 1.99 5.66 2.98 6 4 C3.69 4 1.38 4 -1 4 C-0.34 3.67 0.32 3.34 1 3 C0.67 2.01 0.34 1.02 0 0 Z " transform="translate(550,1020)" style="fill: #282A1F;"/><path d="M0 0 C0.99 0 1.98 0 3 0 C3 0.66 3 1.32 3 2 C3.99 2.33 4.98 2.66 6 3 C2.04 3 -1.92 3 -6 3 C-4.68 2.34 -3.36 1.68 -2 1 C-1.34 1.33 -0.68 1.66 0 2 C0 1.34 0 0.68 0 0 Z " transform="translate(304,992)" style="fill: #4E4A40;"/><path d="M0 0 C2.97 0.495 2.97 0.495 6 1 C5.401875 1.268125 4.80375 1.53625 4.1875 1.8125 C1.95732387 2.88022403 1.95732387 2.88022403 0.4375 4.625 C-1 6 -1 6 -4 6 C-4 5.34 -4 4.68 -4 4 C-3.01 3.67 -2.02 3.34 -1 3 C-0.67 2.01 -0.34 1.02 0 0 Z " transform="translate(556,986)" style="fill: #35352C;"/><path d="M0 0 C3.125 -0.1875 3.125 -0.1875 6 0 C5.01 1.485 5.01 1.485 4 3 C0.875 3.1875 0.875 3.1875 -2 3 C-1.34 2.01 -0.68 1.02 0 0 Z " transform="translate(302,1002)" style="fill: #333426;"/><path d="M0 0 C0 0.33 0 0.66 0 1 C-1.41433206 1.2236337 -2.83167618 1.42826476 -4.25 1.625 C-5.03890625 1.74101563 -5.8278125 1.85703125 -6.640625 1.9765625 C-9.32152459 2.00319395 -10.72694089 1.36592084 -13 0 C-8.34462607 -0.83796731 -4.62921525 -1.0161692 0 0 Z " transform="translate(262,998)" style="fill: #3C382B;"/><path d="M0 0 C0.33 1.32 0.66 2.64 1 4 C-1.31 4 -3.62 4 -6 4 C-6 3.34 -6 2.68 -6 2 C-2.25 0 -2.25 0 0 0 Z " transform="translate(500,989)" style="fill: #3D3C2D;"/><path d="M0 0 C2 2 2 2 2 5 C1.67 5.66 1.34 6.32 1 7 C0.01 7 -0.98 7 -2 7 C-1.125 1.125 -1.125 1.125 0 0 Z " transform="translate(538,1017)" style="fill: #212318;"/><path d="M0 0 C2.475 0.495 2.475 0.495 5 1 C4.67 1.99 4.34 2.98 4 4 C2.68 4 1.36 4 0 4 C0 2.68 0 1.36 0 0 Z " transform="translate(501,993)" style="fill: #262719;"/></svg>