<svg xmlns="http://www.w3.org/2000/svg" id="svg0.21014646951163374" viewBox="0 0 1024 1024"><path d="M0 0 C337.92 0 675.84 0 1024 0 C1024 337.92 1024 675.84 1024 1024 C686.08 1024 348.16 1024 0 1024 C0 686.08 0 348.16 0 0 Z " transform="translate(0,0)" style="fill: #5E7CA0;"/><path d="M0 0 C16.69728517 2.12309683 32.99962601 2.51111769 49.81787109 2.23852539 C64.50555661 2.03255901 64.50555661 2.03255901 71.60791016 3.80541992 C78.05064949 4.93480276 84.81049651 4.46106277 91.3359375 4.38671875 C92.88020251 4.37666579 94.42447388 4.36754404 95.96875 4.359375 C99.71627999 4.33755211 103.46356696 4.30315081 107.2109375 4.26171875 C107.2109375 5.58171875 107.2109375 6.90171875 107.2109375 8.26171875 C108.3659375 7.76671875 109.5209375 7.27171875 110.7109375 6.76171875 C119.06369851 3.68592019 127.68245122 5.60675753 136.2109375 7.26171875 C137.2009375 7.75671875 137.2009375 7.75671875 138.2109375 8.26171875 C138.2109375 8.92171875 138.2109375 9.58171875 138.2109375 10.26171875 C82.7709375 10.26171875 27.3309375 10.26171875 -29.7890625 10.26171875 C-29.7890625 6.63171875 -29.7890625 3.00171875 -29.7890625 -0.73828125 C-19.9398357 -2.58501128 -9.85701043 -1.29037812 0 0 Z " transform="translate(29.7890625,1013.73828125)" style="fill: #EBECE1;"/><path d="M0 0 C1.41655793 -0.0272415 2.83327045 -0.04650467 4.25 -0.0625 C5.43335938 -0.07990234 5.43335938 -0.07990234 6.640625 -0.09765625 C8.90691002 -0.00385306 10.8288895 0.36758937 13 1 C13 1.66 13 2.32 13 3 C8.38 3 3.76 3 -1 3 C-0.67 2.01 -0.34 1.02 0 0 Z " transform="translate(263,1021)" style="fill: #D5DFE0;"/><path d="M0 0 C0 0.66 0 1.32 0 2 C-4.29 2 -8.58 2 -13 2 C-8.93497316 -2.06502684 -5.21168103 -0.76893655 0 0 Z " transform="translate(184,1022)" style="fill: #D6E0E2;"/><path d="M0 0 C1.45922693 0.11409593 2.91740598 0.24165544 4.375 0.375 C5.59316406 0.47941406 5.59316406 0.47941406 6.8359375 0.5859375 C9 1 9 1 11 3 C7.37 3 3.74 3 0 3 C0 2.01 0 1.02 0 0 Z " transform="translate(289,1021)" style="fill: #D0DADA;"/><path d="M0 0 C2.31 0 4.62 0 7 0 C7 0.99 7 1.98 7 3 C4.36 3 1.72 3 -1 3 C-0.67 2.01 -0.34 1.02 0 0 Z " transform="translate(191,1021)" style="fill: #D7E1E0;"/></svg>